<svg xmlns="http://www.w3.org/2000/svg" width="880" height="250" viewBox="0 0 880 250" role="img">
  <defs>
    <radialGradient id="emberGlow" cx="82%" cy="118%" r="70%">
      <stop offset="0%" stop-color="#E36A5E" stop-opacity="0.16"/>
      <stop offset="55%" stop-color="#C8901F" stop-opacity="0.05"/>
      <stop offset="100%" stop-color="#E36A5E" stop-opacity="0"/>
    </radialGradient>
    <linearGradient id="areaFill" x1="0" y1="0" x2="0" y2="1">
      <stop offset="0%" stop-color="#E36A5E" stop-opacity="0.55"/>
      <stop offset="100%" stop-color="#E36A5E" stop-opacity="0.02"/>
    </linearGradient>
    <linearGradient id="barEmber" x1="0" y1="0" x2="1" y2="0">
      <stop offset="0%" stop-color="#C0503F"/>
      <stop offset="100%" stop-color="#E36A5E"/>
    </linearGradient>
  </defs>
  <rect x="0.5" y="0.5" width="879" height="249" rx="14" fill="#17120C" stroke="#2C2419"/>
  <rect x="0.5" y="0.5" width="879" height="249" rx="14" fill="url(#emberGlow)"/>
  
    <line x1="13" y1="13" x2="24" y2="13" stroke="#C0503F" stroke-width="1" opacity="0.7"/>
    <line x1="13" y1="13" x2="13" y2="24" stroke="#C0503F" stroke-width="1" opacity="0.7"/>
    <line x1="867" y1="13" x2="856" y2="13" stroke="#C0503F" stroke-width="1" opacity="0.7"/>
    <line x1="867" y1="13" x2="867" y2="24" stroke="#C0503F" stroke-width="1" opacity="0.7"/>
    <line x1="13" y1="237" x2="24" y2="237" stroke="#C0503F" stroke-width="1" opacity="0.7"/>
    <line x1="13" y1="237" x2="13" y2="226" stroke="#C0503F" stroke-width="1" opacity="0.7"/>
    <line x1="867" y1="237" x2="856" y2="237" stroke="#C0503F" stroke-width="1" opacity="0.7"/>
    <line x1="867" y1="237" x2="867" y2="226" stroke="#C0503F" stroke-width="1" opacity="0.7"/>
  <text x="30" y="34" font-family="ui-monospace,'SF Mono',SFMono-Regular,Menlo,Consolas,monospace" font-size="11" letter-spacing="2.2" fill="#E6BF5A" font-weight="600">DAILY OUTPUT TOKENS · THE FORGE RUNS HOT</text>
  <text x="850" y="34" text-anchor="end" font-family="ui-monospace,'SF Mono',SFMono-Regular,Menlo,Consolas,monospace" font-size="9.5" letter-spacing="1.6" fill="#5F564A">MAY 22 – JUL 11</text><line x1="30" y1="113.33333333333334" x2="850" y2="113.33333333333334" stroke="#241D14"/><line x1="30" y1="160.66666666666669" x2="850" y2="160.66666666666669" stroke="#241D14"/><line x1="30" y1="208" x2="850" y2="208" stroke="#241D14"/><path d="M 30 208 L 30.0 206.6 L 46.4 208.0 L 62.8 208.0 L 79.2 202.2 L 95.6 208.0 L 112.0 208.0 L 128.4 208.0 L 144.8 208.0 L 161.2 208.0 L 177.6 208.0 L 194.0 208.0 L 210.4 196.0 L 226.8 208.0 L 243.2 208.0 L 259.6 208.0 L 276.0 191.2 L 292.4 202.8 L 308.8 208.0 L 325.2 208.0 L 341.6 194.1 L 358.0 175.2 L 374.4 157.0 L 390.8 200.7 L 407.2 206.8 L 423.6 187.2 L 440.0 208.0 L 456.4 208.0 L 472.8 208.0 L 489.2 208.0 L 505.6 189.4 L 522.0 208.0 L 538.4 208.0 L 554.8 208.0 L 571.2 208.0 L 587.6 208.0 L 604.0 208.0 L 620.4 208.0 L 636.8 79.8 L 653.2 96.7 L 669.6 140.6 L 686.0 136.2 L 702.4 174.7 L 718.8 132.9 L 735.2 99.4 L 751.6 107.7 L 768.0 121.6 L 784.4 206.1 L 800.8 201.8 L 817.2 208.0 L 833.6 208.0 L 850.0 66.0 L 850 208 Z" fill="url(#areaFill)"/><path d="M 30.0 206.6 L 46.4 208.0 L 62.8 208.0 L 79.2 202.2 L 95.6 208.0 L 112.0 208.0 L 128.4 208.0 L 144.8 208.0 L 161.2 208.0 L 177.6 208.0 L 194.0 208.0 L 210.4 196.0 L 226.8 208.0 L 243.2 208.0 L 259.6 208.0 L 276.0 191.2 L 292.4 202.8 L 308.8 208.0 L 325.2 208.0 L 341.6 194.1 L 358.0 175.2 L 374.4 157.0 L 390.8 200.7 L 407.2 206.8 L 423.6 187.2 L 440.0 208.0 L 456.4 208.0 L 472.8 208.0 L 489.2 208.0 L 505.6 189.4 L 522.0 208.0 L 538.4 208.0 L 554.8 208.0 L 571.2 208.0 L 587.6 208.0 L 604.0 208.0 L 620.4 208.0 L 636.8 79.8 L 653.2 96.7 L 669.6 140.6 L 686.0 136.2 L 702.4 174.7 L 718.8 132.9 L 735.2 99.4 L 751.6 107.7 L 768.0 121.6 L 784.4 206.1 L 800.8 201.8 L 817.2 208.0 L 833.6 208.0 L 850.0 66.0 " fill="none" stroke="#E36A5E" stroke-width="2" stroke-linejoin="round"/><circle cx="850.0" cy="66.0" r="4" fill="#E6BF5A"/><text x="850.0" y="54.0" text-anchor="end" font-family="ui-monospace,'SF Mono',SFMono-Regular,Menlo,Consolas,monospace" font-size="10.5" fill="#E6BF5A" font-weight="600">11.5M peak</text><text x="30" y="230" font-family="ui-monospace,'SF Mono',SFMono-Regular,Menlo,Consolas,monospace" font-size="10" fill="#8B8072">May</text><text x="194" y="230" font-family="ui-monospace,'SF Mono',SFMono-Regular,Menlo,Consolas,monospace" font-size="10" fill="#8B8072">Jun</text><text x="686" y="230" font-family="ui-monospace,'SF Mono',SFMono-Regular,Menlo,Consolas,monospace" font-size="10" fill="#8B8072">Jul</text></svg>
