<svg xmlns="http://www.w3.org/2000/svg" width="880" height="250" viewBox="0 0 880 250" role="img">
  <defs>
    <radialGradient id="emberGlow" cx="82%" cy="118%" r="70%">
      <stop offset="0%" stop-color="#E36A5E" stop-opacity="0.16"/>
      <stop offset="55%" stop-color="#C8901F" stop-opacity="0.05"/>
      <stop offset="100%" stop-color="#E36A5E" stop-opacity="0"/>
    </radialGradient>
    <linearGradient id="areaFill" x1="0" y1="0" x2="0" y2="1">
      <stop offset="0%" stop-color="#E36A5E" stop-opacity="0.55"/>
      <stop offset="100%" stop-color="#E36A5E" stop-opacity="0.02"/>
    </linearGradient>
    <linearGradient id="barEmber" x1="0" y1="0" x2="1" y2="0">
      <stop offset="0%" stop-color="#C0503F"/>
      <stop offset="100%" stop-color="#E36A5E"/>
    </linearGradient>
  </defs>
  <rect x="0.5" y="0.5" width="879" height="249" rx="14" fill="#17120C" stroke="#2C2419"/>
  <rect x="0.5" y="0.5" width="879" height="249" rx="14" fill="url(#emberGlow)"/>
  
    <line x1="13" y1="13" x2="24" y2="13" stroke="#C0503F" stroke-width="1" opacity="0.7"/>
    <line x1="13" y1="13" x2="13" y2="24" stroke="#C0503F" stroke-width="1" opacity="0.7"/>
    <line x1="867" y1="13" x2="856" y2="13" stroke="#C0503F" stroke-width="1" opacity="0.7"/>
    <line x1="867" y1="13" x2="867" y2="24" stroke="#C0503F" stroke-width="1" opacity="0.7"/>
    <line x1="13" y1="237" x2="24" y2="237" stroke="#C0503F" stroke-width="1" opacity="0.7"/>
    <line x1="13" y1="237" x2="13" y2="226" stroke="#C0503F" stroke-width="1" opacity="0.7"/>
    <line x1="867" y1="237" x2="856" y2="237" stroke="#C0503F" stroke-width="1" opacity="0.7"/>
    <line x1="867" y1="237" x2="867" y2="226" stroke="#C0503F" stroke-width="1" opacity="0.7"/>
  <text x="30" y="34" font-family="ui-monospace,'SF Mono',SFMono-Regular,Menlo,Consolas,monospace" font-size="11" letter-spacing="2.2" fill="#E6BF5A" font-weight="600">DAILY OUTPUT TOKENS · THE FORGE RUNS HOT</text>
  <text x="850" y="34" text-anchor="end" font-family="ui-monospace,'SF Mono',SFMono-Regular,Menlo,Consolas,monospace" font-size="9.5" letter-spacing="1.6" fill="#5F564A">MAY 22 – JUL 20</text><line x1="30" y1="113.33333333333334" x2="850" y2="113.33333333333334" stroke="#241D14"/><line x1="30" y1="160.66666666666669" x2="850" y2="160.66666666666669" stroke="#241D14"/><line x1="30" y1="208" x2="850" y2="208" stroke="#241D14"/><path d="M 30 208 L 30.0 206.9 L 43.9 208.0 L 57.8 208.0 L 71.7 203.1 L 85.6 208.0 L 99.5 208.0 L 113.4 208.0 L 127.3 208.0 L 141.2 208.0 L 155.1 208.0 L 169.0 208.0 L 182.9 197.9 L 196.8 208.0 L 210.7 208.0 L 224.6 208.0 L 238.5 193.8 L 252.4 203.6 L 266.3 208.0 L 280.2 208.0 L 294.1 196.3 L 308.0 180.3 L 321.9 165.0 L 335.8 201.8 L 349.7 207.0 L 363.6 190.5 L 377.5 208.0 L 391.4 208.0 L 405.3 208.0 L 419.2 208.0 L 433.1 192.3 L 446.9 208.0 L 460.8 208.0 L 474.7 208.0 L 488.6 208.0 L 502.5 208.0 L 516.4 208.0 L 530.3 208.0 L 544.2 99.9 L 558.1 114.2 L 572.0 151.2 L 585.9 147.5 L 599.8 179.9 L 613.7 144.7 L 627.6 116.4 L 641.5 123.5 L 655.4 135.2 L 669.3 206.4 L 683.2 202.8 L 697.1 208.0 L 711.0 208.0 L 724.9 78.6 L 738.8 66.0 L 752.7 160.4 L 766.6 145.6 L 780.5 175.0 L 794.4 187.4 L 808.3 169.6 L 822.2 153.2 L 836.1 122.4 L 850.0 173.2 L 850 208 Z" fill="url(#areaFill)"/><path d="M 30.0 206.9 L 43.9 208.0 L 57.8 208.0 L 71.7 203.1 L 85.6 208.0 L 99.5 208.0 L 113.4 208.0 L 127.3 208.0 L 141.2 208.0 L 155.1 208.0 L 169.0 208.0 L 182.9 197.9 L 196.8 208.0 L 210.7 208.0 L 224.6 208.0 L 238.5 193.8 L 252.4 203.6 L 266.3 208.0 L 280.2 208.0 L 294.1 196.3 L 308.0 180.3 L 321.9 165.0 L 335.8 201.8 L 349.7 207.0 L 363.6 190.5 L 377.5 208.0 L 391.4 208.0 L 405.3 208.0 L 419.2 208.0 L 433.1 192.3 L 446.9 208.0 L 460.8 208.0 L 474.7 208.0 L 488.6 208.0 L 502.5 208.0 L 516.4 208.0 L 530.3 208.0 L 544.2 99.9 L 558.1 114.2 L 572.0 151.2 L 585.9 147.5 L 599.8 179.9 L 613.7 144.7 L 627.6 116.4 L 641.5 123.5 L 655.4 135.2 L 669.3 206.4 L 683.2 202.8 L 697.1 208.0 L 711.0 208.0 L 724.9 78.6 L 738.8 66.0 L 752.7 160.4 L 766.6 145.6 L 780.5 175.0 L 794.4 187.4 L 808.3 169.6 L 822.2 153.2 L 836.1 122.4 L 850.0 173.2 " fill="none" stroke="#E36A5E" stroke-width="2" stroke-linejoin="round"/><circle cx="738.8" cy="66.0" r="4" fill="#E6BF5A"/><text x="738.8" y="54.0" text-anchor="middle" font-family="ui-monospace,'SF Mono',SFMono-Regular,Menlo,Consolas,monospace" font-size="10.5" fill="#E6BF5A" font-weight="600">13.6M peak</text><text x="30" y="230" font-family="ui-monospace,'SF Mono',SFMono-Regular,Menlo,Consolas,monospace" font-size="10" fill="#8B8072">May</text><text x="168.98305084745763" y="230" font-family="ui-monospace,'SF Mono',SFMono-Regular,Menlo,Consolas,monospace" font-size="10" fill="#8B8072">Jun</text><text x="585.9322033898305" y="230" font-family="ui-monospace,'SF Mono',SFMono-Regular,Menlo,Consolas,monospace" font-size="10" fill="#8B8072">Jul</text></svg>
