<svg xmlns="http://www.w3.org/2000/svg" width="880" height="250" viewBox="0 0 880 250" role="img">
  <defs>
    <radialGradient id="emberGlow" cx="82%" cy="118%" r="70%">
      <stop offset="0%" stop-color="#E36A5E" stop-opacity="0.16"/>
      <stop offset="55%" stop-color="#C8901F" stop-opacity="0.05"/>
      <stop offset="100%" stop-color="#E36A5E" stop-opacity="0"/>
    </radialGradient>
    <linearGradient id="areaFill" x1="0" y1="0" x2="0" y2="1">
      <stop offset="0%" stop-color="#E36A5E" stop-opacity="0.55"/>
      <stop offset="100%" stop-color="#E36A5E" stop-opacity="0.02"/>
    </linearGradient>
    <linearGradient id="barEmber" x1="0" y1="0" x2="1" y2="0">
      <stop offset="0%" stop-color="#C0503F"/>
      <stop offset="100%" stop-color="#E36A5E"/>
    </linearGradient>
  </defs>
  <rect x="0.5" y="0.5" width="879" height="249" rx="14" fill="#17120C" stroke="#2C2419"/>
  <rect x="0.5" y="0.5" width="879" height="249" rx="14" fill="url(#emberGlow)"/>
  
    <line x1="13" y1="13" x2="24" y2="13" stroke="#C0503F" stroke-width="1" opacity="0.7"/>
    <line x1="13" y1="13" x2="13" y2="24" stroke="#C0503F" stroke-width="1" opacity="0.7"/>
    <line x1="867" y1="13" x2="856" y2="13" stroke="#C0503F" stroke-width="1" opacity="0.7"/>
    <line x1="867" y1="13" x2="867" y2="24" stroke="#C0503F" stroke-width="1" opacity="0.7"/>
    <line x1="13" y1="237" x2="24" y2="237" stroke="#C0503F" stroke-width="1" opacity="0.7"/>
    <line x1="13" y1="237" x2="13" y2="226" stroke="#C0503F" stroke-width="1" opacity="0.7"/>
    <line x1="867" y1="237" x2="856" y2="237" stroke="#C0503F" stroke-width="1" opacity="0.7"/>
    <line x1="867" y1="237" x2="867" y2="226" stroke="#C0503F" stroke-width="1" opacity="0.7"/>
  <text x="30" y="34" font-family="ui-monospace,'SF Mono',SFMono-Regular,Menlo,Consolas,monospace" font-size="11" letter-spacing="2.2" fill="#E6BF5A" font-weight="600">DAILY OUTPUT TOKENS · THE FORGE RUNS HOT</text>
  <text x="850" y="34" text-anchor="end" font-family="ui-monospace,'SF Mono',SFMono-Regular,Menlo,Consolas,monospace" font-size="9.5" letter-spacing="1.6" fill="#5F564A">MAY 22 – JUL 13</text><line x1="30" y1="113.33333333333334" x2="850" y2="113.33333333333334" stroke="#241D14"/><line x1="30" y1="160.66666666666669" x2="850" y2="160.66666666666669" stroke="#241D14"/><line x1="30" y1="208" x2="850" y2="208" stroke="#241D14"/><path d="M 30 208 L 30.0 206.9 L 45.8 208.0 L 61.5 208.0 L 77.3 203.1 L 93.1 208.0 L 108.8 208.0 L 124.6 208.0 L 140.4 208.0 L 156.2 208.0 L 171.9 208.0 L 187.7 208.0 L 203.5 197.8 L 219.2 208.0 L 235.0 208.0 L 250.8 208.0 L 266.5 193.8 L 282.3 203.6 L 298.1 208.0 L 313.8 208.0 L 329.6 196.3 L 345.4 180.3 L 361.2 165.0 L 376.9 201.8 L 392.7 207.0 L 408.5 190.5 L 424.2 208.0 L 440.0 208.0 L 455.8 208.0 L 471.5 208.0 L 487.3 192.3 L 503.1 208.0 L 518.8 208.0 L 534.6 208.0 L 550.4 208.0 L 566.2 208.0 L 581.9 208.0 L 597.7 208.0 L 613.5 99.7 L 629.2 114.0 L 645.0 151.1 L 660.8 147.4 L 676.5 179.9 L 692.3 144.6 L 708.1 116.3 L 723.8 123.4 L 739.6 135.0 L 755.4 206.4 L 771.2 202.8 L 786.9 208.0 L 802.7 208.0 L 818.5 78.4 L 834.2 66.0 L 850.0 204.3 L 850 208 Z" fill="url(#areaFill)"/><path d="M 30.0 206.9 L 45.8 208.0 L 61.5 208.0 L 77.3 203.1 L 93.1 208.0 L 108.8 208.0 L 124.6 208.0 L 140.4 208.0 L 156.2 208.0 L 171.9 208.0 L 187.7 208.0 L 203.5 197.8 L 219.2 208.0 L 235.0 208.0 L 250.8 208.0 L 266.5 193.8 L 282.3 203.6 L 298.1 208.0 L 313.8 208.0 L 329.6 196.3 L 345.4 180.3 L 361.2 165.0 L 376.9 201.8 L 392.7 207.0 L 408.5 190.5 L 424.2 208.0 L 440.0 208.0 L 455.8 208.0 L 471.5 208.0 L 487.3 192.3 L 503.1 208.0 L 518.8 208.0 L 534.6 208.0 L 550.4 208.0 L 566.2 208.0 L 581.9 208.0 L 597.7 208.0 L 613.5 99.7 L 629.2 114.0 L 645.0 151.1 L 660.8 147.4 L 676.5 179.9 L 692.3 144.6 L 708.1 116.3 L 723.8 123.4 L 739.6 135.0 L 755.4 206.4 L 771.2 202.8 L 786.9 208.0 L 802.7 208.0 L 818.5 78.4 L 834.2 66.0 L 850.0 204.3 " fill="none" stroke="#E36A5E" stroke-width="2" stroke-linejoin="round"/><circle cx="834.2" cy="66.0" r="4" fill="#E6BF5A"/><text x="850.0" y="54.0" text-anchor="end" font-family="ui-monospace,'SF Mono',SFMono-Regular,Menlo,Consolas,monospace" font-size="10.5" fill="#E6BF5A" font-weight="600">13.6M peak</text><text x="30" y="230" font-family="ui-monospace,'SF Mono',SFMono-Regular,Menlo,Consolas,monospace" font-size="10" fill="#8B8072">May</text><text x="187.6923076923077" y="230" font-family="ui-monospace,'SF Mono',SFMono-Regular,Menlo,Consolas,monospace" font-size="10" fill="#8B8072">Jun</text><text x="660.7692307692308" y="230" font-family="ui-monospace,'SF Mono',SFMono-Regular,Menlo,Consolas,monospace" font-size="10" fill="#8B8072">Jul</text></svg>
