<svg xmlns="http://www.w3.org/2000/svg" width="880" height="296" viewBox="0 0 880 296" role="img">
  <defs>
    <radialGradient id="emberGlow" cx="82%" cy="118%" r="70%">
      <stop offset="0%" stop-color="#E36A5E" stop-opacity="0.16"/>
      <stop offset="55%" stop-color="#C8901F" stop-opacity="0.05"/>
      <stop offset="100%" stop-color="#E36A5E" stop-opacity="0"/>
    </radialGradient>
    <linearGradient id="areaFill" x1="0" y1="0" x2="0" y2="1">
      <stop offset="0%" stop-color="#E36A5E" stop-opacity="0.55"/>
      <stop offset="100%" stop-color="#E36A5E" stop-opacity="0.02"/>
    </linearGradient>
    <linearGradient id="barEmber" x1="0" y1="0" x2="1" y2="0">
      <stop offset="0%" stop-color="#C0503F"/>
      <stop offset="100%" stop-color="#E36A5E"/>
    </linearGradient>
  </defs>
  <rect x="0.5" y="0.5" width="879" height="295" rx="14" fill="#17120C" stroke="#2C2419"/>
  <rect x="0.5" y="0.5" width="879" height="295" rx="14" fill="url(#emberGlow)"/>
  
    <line x1="13" y1="13" x2="24" y2="13" stroke="#C0503F" stroke-width="1" opacity="0.7"/>
    <line x1="13" y1="13" x2="13" y2="24" stroke="#C0503F" stroke-width="1" opacity="0.7"/>
    <line x1="867" y1="13" x2="856" y2="13" stroke="#C0503F" stroke-width="1" opacity="0.7"/>
    <line x1="867" y1="13" x2="867" y2="24" stroke="#C0503F" stroke-width="1" opacity="0.7"/>
    <line x1="13" y1="283" x2="24" y2="283" stroke="#C0503F" stroke-width="1" opacity="0.7"/>
    <line x1="13" y1="283" x2="13" y2="272" stroke="#C0503F" stroke-width="1" opacity="0.7"/>
    <line x1="867" y1="283" x2="856" y2="283" stroke="#C0503F" stroke-width="1" opacity="0.7"/>
    <line x1="867" y1="283" x2="867" y2="272" stroke="#C0503F" stroke-width="1" opacity="0.7"/>
  <text x="30" y="34" font-family="ui-monospace,'SF Mono',SFMono-Regular,Menlo,Consolas,monospace" font-size="11" letter-spacing="2.2" fill="#E6BF5A" font-weight="600">SOURCE LANGUAGES · PUBLIC + PRIVATE</text>
  <text x="850" y="34" text-anchor="end" font-family="ui-monospace,'SF Mono',SFMono-Regular,Menlo,Consolas,monospace" font-size="9.5" letter-spacing="1.6" fill="#5F564A">BY BYTES</text><text x="30" y="70" font-family="ui-monospace,'SF Mono',SFMono-Regular,Menlo,Consolas,monospace" font-size="12" fill="#C4B9A7">Swift</text>
      <rect x="130" y="61" width="630" height="9" rx="4.5" fill="#1E1810"/>
      <rect x="130" y="61" width="630.0" height="9" rx="4.5" fill="rgb(230,191,90)"/>
      <text x="850" y="70" text-anchor="end" font-family="ui-monospace,'SF Mono',SFMono-Regular,Menlo,Consolas,monospace" font-size="11" fill="#E6BF5A">76.0%</text><text x="30" y="96" font-family="ui-monospace,'SF Mono',SFMono-Regular,Menlo,Consolas,monospace" font-size="12" fill="#C4B9A7">Python</text>
      <rect x="130" y="87" width="630" height="9" rx="4.5" fill="#1E1810"/>
      <rect x="130" y="87" width="62.5" height="9" rx="4.5" fill="rgb(229,164,91)"/>
      <text x="850" y="96" text-anchor="end" font-family="ui-monospace,'SF Mono',SFMono-Regular,Menlo,Consolas,monospace" font-size="11" fill="#E6BF5A">7.5%</text><text x="30" y="122" font-family="ui-monospace,'SF Mono',SFMono-Regular,Menlo,Consolas,monospace" font-size="12" fill="#C4B9A7">Shell</text>
      <rect x="130" y="113" width="630" height="9" rx="4.5" fill="#1E1810"/>
      <rect x="130" y="113" width="52.6" height="9" rx="4.5" fill="rgb(228,138,93)"/>
      <text x="850" y="122" text-anchor="end" font-family="ui-monospace,'SF Mono',SFMono-Regular,Menlo,Consolas,monospace" font-size="11" fill="#E6BF5A">6.3%</text><text x="30" y="148" font-family="ui-monospace,'SF Mono',SFMono-Regular,Menlo,Consolas,monospace" font-size="12" fill="#C4B9A7">Rust</text>
      <rect x="130" y="139" width="630" height="9" rx="4.5" fill="#1E1810"/>
      <rect x="130" y="139" width="35.7" height="9" rx="4.5" fill="rgb(227,111,94)"/>
      <text x="850" y="148" text-anchor="end" font-family="ui-monospace,'SF Mono',SFMono-Regular,Menlo,Consolas,monospace" font-size="11" fill="#E6BF5A">4.3%</text><text x="30" y="174" font-family="ui-monospace,'SF Mono',SFMono-Regular,Menlo,Consolas,monospace" font-size="12" fill="#C4B9A7">TypeScript</text>
      <rect x="130" y="165" width="630" height="9" rx="4.5" fill="#1E1810"/>
      <rect x="130" y="165" width="18.5" height="9" rx="4.5" fill="rgb(195,93,82)"/>
      <text x="850" y="174" text-anchor="end" font-family="ui-monospace,'SF Mono',SFMono-Regular,Menlo,Consolas,monospace" font-size="11" fill="#E6BF5A">2.2%</text><text x="30" y="200" font-family="ui-monospace,'SF Mono',SFMono-Regular,Menlo,Consolas,monospace" font-size="12" fill="#C4B9A7">JavaScript</text>
      <rect x="130" y="191" width="630" height="9" rx="4.5" fill="#1E1810"/>
      <rect x="130" y="191" width="18.1" height="9" rx="4.5" fill="rgb(155,77,66)"/>
      <text x="850" y="200" text-anchor="end" font-family="ui-monospace,'SF Mono',SFMono-Regular,Menlo,Consolas,monospace" font-size="11" fill="#E6BF5A">2.2%</text><text x="30" y="226" font-family="ui-monospace,'SF Mono',SFMono-Regular,Menlo,Consolas,monospace" font-size="12" fill="#C4B9A7">Astro</text>
      <rect x="130" y="217" width="630" height="9" rx="4.5" fill="#1E1810"/>
      <rect x="130" y="217" width="9.4" height="9" rx="4.5" fill="rgb(116,61,51)"/>
      <text x="850" y="226" text-anchor="end" font-family="ui-monospace,'SF Mono',SFMono-Regular,Menlo,Consolas,monospace" font-size="11" fill="#E6BF5A">1.1%</text><text x="30" y="252" font-family="ui-monospace,'SF Mono',SFMono-Regular,Menlo,Consolas,monospace" font-size="12" fill="#C4B9A7">Ruby</text>
      <rect x="130" y="243" width="630" height="9" rx="4.5" fill="#1E1810"/>
      <rect x="130" y="243" width="2.5" height="9" rx="4.5" fill="rgb(76,45,35)"/>
      <text x="850" y="252" text-anchor="end" font-family="ui-monospace,'SF Mono',SFMono-Regular,Menlo,Consolas,monospace" font-size="11" fill="#E6BF5A">0.3%</text><text x="30" y="280" font-family="ui-monospace,'SF Mono',SFMono-Regular,Menlo,Consolas,monospace" font-size="10" fill="#5F564A">hand-written source · generated markup (HTML/CSS) excluded · via gh api</text></svg>
