<svg xmlns="http://www.w3.org/2000/svg" width="880" height="200" viewBox="0 0 880 200" role="img">
  <defs>
    <radialGradient id="emberGlow" cx="82%" cy="118%" r="70%">
      <stop offset="0%" stop-color="#E36A5E" stop-opacity="0.16"/>
      <stop offset="55%" stop-color="#C8901F" stop-opacity="0.05"/>
      <stop offset="100%" stop-color="#E36A5E" stop-opacity="0"/>
    </radialGradient>
    <linearGradient id="areaFill" x1="0" y1="0" x2="0" y2="1">
      <stop offset="0%" stop-color="#E36A5E" stop-opacity="0.55"/>
      <stop offset="100%" stop-color="#E36A5E" stop-opacity="0.02"/>
    </linearGradient>
    <linearGradient id="barEmber" x1="0" y1="0" x2="1" y2="0">
      <stop offset="0%" stop-color="#C0503F"/>
      <stop offset="100%" stop-color="#E36A5E"/>
    </linearGradient>
  </defs>
  <rect x="0.5" y="0.5" width="879" height="199" rx="14" fill="#17120C" stroke="#2C2419"/>
  <rect x="0.5" y="0.5" width="879" height="199" rx="14" fill="url(#emberGlow)"/>
  
    <line x1="13" y1="13" x2="24" y2="13" stroke="#C0503F" stroke-width="1" opacity="0.7"/>
    <line x1="13" y1="13" x2="13" y2="24" stroke="#C0503F" stroke-width="1" opacity="0.7"/>
    <line x1="867" y1="13" x2="856" y2="13" stroke="#C0503F" stroke-width="1" opacity="0.7"/>
    <line x1="867" y1="13" x2="867" y2="24" stroke="#C0503F" stroke-width="1" opacity="0.7"/>
    <line x1="13" y1="187" x2="24" y2="187" stroke="#C0503F" stroke-width="1" opacity="0.7"/>
    <line x1="13" y1="187" x2="13" y2="176" stroke="#C0503F" stroke-width="1" opacity="0.7"/>
    <line x1="867" y1="187" x2="856" y2="187" stroke="#C0503F" stroke-width="1" opacity="0.7"/>
    <line x1="867" y1="187" x2="867" y2="176" stroke="#C0503F" stroke-width="1" opacity="0.7"/>
  <text x="30" y="34" font-family="ui-monospace,'SF Mono',SFMono-Regular,Menlo,Consolas,monospace" font-size="11" letter-spacing="2.2" fill="#E6BF5A" font-weight="600">MODEL MIX</text>
  <text x="850" y="34" text-anchor="end" font-family="ui-monospace,'SF Mono',SFMono-Regular,Menlo,Consolas,monospace" font-size="9.5" letter-spacing="1.6" fill="#5F564A">103K ASSISTANT MESSAGES</text><rect x="30" y="58" width="820" height="16" rx="4" fill="#1E1810"/><g clip-path="inset(0 round 4px)"><g><clipPath id="mm"><rect x="30" y="58" width="820" height="16" rx="4"/></clipPath><g clip-path="url(#mm)"><rect x="30.0" y="58" width="310.1" height="16" fill="rgb(230,191,90)"/><rect x="340.1" y="58" width="215.4" height="16" fill="rgb(229,149,92)"/><rect x="555.5" y="58" width="132.1" height="16" fill="rgb(227,106,94)"/><rect x="687.6" y="58" width="72.6" height="16" fill="rgb(163,80,69)"/><rect x="760.2" y="58" width="49.4" height="16" fill="rgb(100,55,45)"/><rect x="809.6" y="58" width="40.4" height="16" fill="rgb(36,29,20)"/></g></g></g><rect x="30" y="99" width="9" height="9" rx="2" fill="rgb(230,191,90)"/>
      <text x="46" y="108" font-family="ui-monospace,'SF Mono',SFMono-Regular,Menlo,Consolas,monospace" font-size="12" fill="#C4B9A7">Opus 4.8</text>
      <text x="46" y="123" font-family="ui-monospace,'SF Mono',SFMono-Regular,Menlo,Consolas,monospace" font-size="10.5" fill="#8B8072">37.8% · 38.7K msgs</text><rect x="303.3333333333333" y="99" width="9" height="9" rx="2" fill="rgb(229,149,92)"/>
      <text x="319.3333333333333" y="108" font-family="ui-monospace,'SF Mono',SFMono-Regular,Menlo,Consolas,monospace" font-size="12" fill="#C4B9A7">Sonnet 5</text>
      <text x="319.3333333333333" y="123" font-family="ui-monospace,'SF Mono',SFMono-Regular,Menlo,Consolas,monospace" font-size="10.5" fill="#8B8072">26.3% · 26.9K msgs</text><rect x="576.6666666666666" y="99" width="9" height="9" rx="2" fill="rgb(227,106,94)"/>
      <text x="592.6666666666666" y="108" font-family="ui-monospace,'SF Mono',SFMono-Regular,Menlo,Consolas,monospace" font-size="12" fill="#C4B9A7">Fable 5</text>
      <text x="592.6666666666666" y="123" font-family="ui-monospace,'SF Mono',SFMono-Regular,Menlo,Consolas,monospace" font-size="10.5" fill="#8B8072">16.1% · 16.5K msgs</text><rect x="30" y="133" width="9" height="9" rx="2" fill="rgb(163,80,69)"/>
      <text x="46" y="142" font-family="ui-monospace,'SF Mono',SFMono-Regular,Menlo,Consolas,monospace" font-size="12" fill="#C4B9A7">Haiku 4.5</text>
      <text x="46" y="157" font-family="ui-monospace,'SF Mono',SFMono-Regular,Menlo,Consolas,monospace" font-size="10.5" fill="#8B8072">8.9% · 9.1K msgs</text><rect x="303.3333333333333" y="133" width="9" height="9" rx="2" fill="rgb(100,55,45)"/>
      <text x="319.3333333333333" y="142" font-family="ui-monospace,'SF Mono',SFMono-Regular,Menlo,Consolas,monospace" font-size="12" fill="#C4B9A7">Opus 4.7</text>
      <text x="319.3333333333333" y="157" font-family="ui-monospace,'SF Mono',SFMono-Regular,Menlo,Consolas,monospace" font-size="10.5" fill="#8B8072">6.0% · 6.2K msgs</text><rect x="576.6666666666666" y="133" width="9" height="9" rx="2" fill="rgb(36,29,20)"/>
      <text x="592.6666666666666" y="142" font-family="ui-monospace,'SF Mono',SFMono-Regular,Menlo,Consolas,monospace" font-size="12" fill="#C4B9A7">Sonnet 4.6</text>
      <text x="592.6666666666666" y="157" font-family="ui-monospace,'SF Mono',SFMono-Regular,Menlo,Consolas,monospace" font-size="10.5" fill="#8B8072">4.9% · 5.0K msgs</text></svg>
