<svg xmlns="http://www.w3.org/2000/svg" width="880" height="266" viewBox="0 0 880 266" role="img">
  <defs>
    <radialGradient id="emberGlow" cx="82%" cy="118%" r="70%">
      <stop offset="0%" stop-color="#E36A5E" stop-opacity="0.16"/>
      <stop offset="55%" stop-color="#C8901F" stop-opacity="0.05"/>
      <stop offset="100%" stop-color="#E36A5E" stop-opacity="0"/>
    </radialGradient>
    <linearGradient id="areaFill" x1="0" y1="0" x2="0" y2="1">
      <stop offset="0%" stop-color="#E36A5E" stop-opacity="0.55"/>
      <stop offset="100%" stop-color="#E36A5E" stop-opacity="0.02"/>
    </linearGradient>
    <linearGradient id="barEmber" x1="0" y1="0" x2="1" y2="0">
      <stop offset="0%" stop-color="#C0503F"/>
      <stop offset="100%" stop-color="#E36A5E"/>
    </linearGradient>
  </defs>
  <rect x="0.5" y="0.5" width="879" height="265" rx="14" fill="#17120C" stroke="#2C2419"/>
  <rect x="0.5" y="0.5" width="879" height="265" rx="14" fill="url(#emberGlow)"/>
  
    <line x1="13" y1="13" x2="24" y2="13" stroke="#C0503F" stroke-width="1" opacity="0.7"/>
    <line x1="13" y1="13" x2="13" y2="24" stroke="#C0503F" stroke-width="1" opacity="0.7"/>
    <line x1="867" y1="13" x2="856" y2="13" stroke="#C0503F" stroke-width="1" opacity="0.7"/>
    <line x1="867" y1="13" x2="867" y2="24" stroke="#C0503F" stroke-width="1" opacity="0.7"/>
    <line x1="13" y1="253" x2="24" y2="253" stroke="#C0503F" stroke-width="1" opacity="0.7"/>
    <line x1="13" y1="253" x2="13" y2="242" stroke="#C0503F" stroke-width="1" opacity="0.7"/>
    <line x1="867" y1="253" x2="856" y2="253" stroke="#C0503F" stroke-width="1" opacity="0.7"/>
    <line x1="867" y1="253" x2="867" y2="242" stroke="#C0503F" stroke-width="1" opacity="0.7"/>
  <text x="30" y="34" font-family="ui-monospace,'SF Mono',SFMono-Regular,Menlo,Consolas,monospace" font-size="11" letter-spacing="2.2" fill="#E6BF5A" font-weight="600">THE WORKS · LINES ADDED PER REPO</text>
  <text x="850" y="34" text-anchor="end" font-family="ui-monospace,'SF Mono',SFMono-Regular,Menlo,Consolas,monospace" font-size="9.5" letter-spacing="1.6" fill="#5F564A">6 REPOS</text><text x="30" y="73" font-family="ui-monospace,'SF Mono',SFMono-Regular,Menlo,Consolas,monospace" font-size="12" fill="#F3EDE1" font-weight="600">folix</text>
      <rect x="150" y="64" width="580" height="10" rx="5" fill="#1E1810"/>
      <rect x="150" y="64" width="580.0" height="10" rx="5" fill="url(#barEmber)"/>
      <text x="740" y="73" font-family="ui-monospace,'SF Mono',SFMono-Regular,Menlo,Consolas,monospace" font-size="11" fill="#E6BF5A">42.9K</text>
      <text x="850" y="73" text-anchor="end" font-family="ui-monospace,'SF Mono',SFMono-Regular,Menlo,Consolas,monospace" font-size="10.5" fill="#8B8072">218 sess</text><text x="30" y="103" font-family="ui-monospace,'SF Mono',SFMono-Regular,Menlo,Consolas,monospace" font-size="12" fill="#F3EDE1" font-weight="600">cubby</text>
      <rect x="150" y="94" width="580" height="10" rx="5" fill="#1E1810"/>
      <rect x="150" y="94" width="454.8" height="10" rx="5" fill="url(#barEmber)"/>
      <text x="614.7753371689455" y="103" font-family="ui-monospace,'SF Mono',SFMono-Regular,Menlo,Consolas,monospace" font-size="11" fill="#E6BF5A">33.7K</text>
      <text x="850" y="103" text-anchor="end" font-family="ui-monospace,'SF Mono',SFMono-Regular,Menlo,Consolas,monospace" font-size="10.5" fill="#8B8072">337 sess</text><text x="30" y="133" font-family="ui-monospace,'SF Mono',SFMono-Regular,Menlo,Consolas,monospace" font-size="12" fill="#F3EDE1" font-weight="600">doc-scan</text>
      <rect x="150" y="124" width="580" height="10" rx="5" fill="#1E1810"/>
      <rect x="150" y="124" width="307.6" height="10" rx="5" fill="url(#barEmber)"/>
      <text x="467.59684144324615" y="133" font-family="ui-monospace,'SF Mono',SFMono-Regular,Menlo,Consolas,monospace" font-size="11" fill="#E6BF5A">22.8K</text>
      <text x="850" y="133" text-anchor="end" font-family="ui-monospace,'SF Mono',SFMono-Regular,Menlo,Consolas,monospace" font-size="10.5" fill="#8B8072">129 sess</text><text x="30" y="163" font-family="ui-monospace,'SF Mono',SFMono-Regular,Menlo,Consolas,monospace" font-size="12" fill="#F3EDE1" font-weight="600">foundry</text>
      <rect x="150" y="154" width="580" height="10" rx="5" fill="#1E1810"/>
      <rect x="150" y="154" width="185.0" height="10" rx="5" fill="url(#barEmber)"/>
      <text x="344.993128508537" y="163" font-family="ui-monospace,'SF Mono',SFMono-Regular,Menlo,Consolas,monospace" font-size="11" fill="#E6BF5A">13.7K</text>
      <text x="850" y="163" text-anchor="end" font-family="ui-monospace,'SF Mono',SFMono-Regular,Menlo,Consolas,monospace" font-size="10.5" fill="#8B8072">192 sess</text><text x="30" y="193" font-family="ui-monospace,'SF Mono',SFMono-Regular,Menlo,Consolas,monospace" font-size="12" fill="#F3EDE1" font-weight="600">cartoon</text>
      <rect x="150" y="184" width="580" height="10" rx="5" fill="#1E1810"/>
      <rect x="150" y="184" width="12.0" height="10" rx="5" fill="url(#barEmber)"/>
      <text x="171.969905196711" y="193" font-family="ui-monospace,'SF Mono',SFMono-Regular,Menlo,Consolas,monospace" font-size="11" fill="#E6BF5A">886</text>
      <text x="850" y="193" text-anchor="end" font-family="ui-monospace,'SF Mono',SFMono-Regular,Menlo,Consolas,monospace" font-size="10.5" fill="#8B8072">2 sess</text><text x="30" y="223" font-family="ui-monospace,'SF Mono',SFMono-Regular,Menlo,Consolas,monospace" font-size="12" fill="#F3EDE1" font-weight="600">claude-skills</text>
      <rect x="150" y="214" width="580" height="10" rx="5" fill="#1E1810"/>
      <rect x="150" y="214" width="10.1" height="10" rx="5" fill="url(#barEmber)"/>
      <text x="170.1055181570427" y="223" font-family="ui-monospace,'SF Mono',SFMono-Regular,Menlo,Consolas,monospace" font-size="11" fill="#E6BF5A">748</text>
      <text x="850" y="223" text-anchor="end" font-family="ui-monospace,'SF Mono',SFMono-Regular,Menlo,Consolas,monospace" font-size="10.5" fill="#8B8072">2 sess</text><text x="30" y="250" font-family="ui-monospace,'SF Mono',SFMono-Regular,Menlo,Consolas,monospace" font-size="10" fill="#5F564A">bar = lines added · public + private · matches the foundry site ledger</text></svg>
