<svg xmlns="http://www.w3.org/2000/svg" width="880" height="200" viewBox="0 0 880 200" role="img">
  <defs>
    <radialGradient id="emberGlow" cx="82%" cy="118%" r="70%">
      <stop offset="0%" stop-color="#E36A5E" stop-opacity="0.16"/>
      <stop offset="55%" stop-color="#C8901F" stop-opacity="0.05"/>
      <stop offset="100%" stop-color="#E36A5E" stop-opacity="0"/>
    </radialGradient>
    <linearGradient id="areaFill" x1="0" y1="0" x2="0" y2="1">
      <stop offset="0%" stop-color="#E36A5E" stop-opacity="0.55"/>
      <stop offset="100%" stop-color="#E36A5E" stop-opacity="0.02"/>
    </linearGradient>
    <linearGradient id="barEmber" x1="0" y1="0" x2="1" y2="0">
      <stop offset="0%" stop-color="#C0503F"/>
      <stop offset="100%" stop-color="#E36A5E"/>
    </linearGradient>
  </defs>
  <rect x="0.5" y="0.5" width="879" height="199" rx="14" fill="#17120C" stroke="#2C2419"/>
  <rect x="0.5" y="0.5" width="879" height="199" rx="14" fill="url(#emberGlow)"/>
  
    <line x1="13" y1="13" x2="24" y2="13" stroke="#C0503F" stroke-width="1" opacity="0.7"/>
    <line x1="13" y1="13" x2="13" y2="24" stroke="#C0503F" stroke-width="1" opacity="0.7"/>
    <line x1="867" y1="13" x2="856" y2="13" stroke="#C0503F" stroke-width="1" opacity="0.7"/>
    <line x1="867" y1="13" x2="867" y2="24" stroke="#C0503F" stroke-width="1" opacity="0.7"/>
    <line x1="13" y1="187" x2="24" y2="187" stroke="#C0503F" stroke-width="1" opacity="0.7"/>
    <line x1="13" y1="187" x2="13" y2="176" stroke="#C0503F" stroke-width="1" opacity="0.7"/>
    <line x1="867" y1="187" x2="856" y2="187" stroke="#C0503F" stroke-width="1" opacity="0.7"/>
    <line x1="867" y1="187" x2="867" y2="176" stroke="#C0503F" stroke-width="1" opacity="0.7"/>
  <text x="30" y="34" font-family="ui-monospace,'SF Mono',SFMono-Regular,Menlo,Consolas,monospace" font-size="11" letter-spacing="2.2" fill="#E6BF5A" font-weight="600">TOP TOOLS</text>
  <text x="850" y="34" text-anchor="end" font-family="ui-monospace,'SF Mono',SFMono-Regular,Menlo,Consolas,monospace" font-size="9.5" letter-spacing="1.6" fill="#5F564A">BY CALL COUNT</text><text x="30" y="69" font-family="ui-monospace,'SF Mono',SFMono-Regular,Menlo,Consolas,monospace" font-size="12" fill="#C4B9A7">Bash</text>
      <rect x="150" y="61" width="640" height="8" rx="4" fill="#1E1810"/>
      <rect x="150" y="61" width="640.0" height="8" rx="4" fill="url(#barEmber)"/>
      <text x="850" y="69" text-anchor="end" font-family="ui-monospace,'SF Mono',SFMono-Regular,Menlo,Consolas,monospace" font-size="11" fill="#E6BF5A">28.2K</text><text x="30" y="91" font-family="ui-monospace,'SF Mono',SFMono-Regular,Menlo,Consolas,monospace" font-size="12" fill="#C4B9A7">Read</text>
      <rect x="150" y="83" width="640" height="8" rx="4" fill="#1E1810"/>
      <rect x="150" y="83" width="401.9" height="8" rx="4" fill="url(#barEmber)"/>
      <text x="850" y="91" text-anchor="end" font-family="ui-monospace,'SF Mono',SFMono-Regular,Menlo,Consolas,monospace" font-size="11" fill="#E6BF5A">17.7K</text><text x="30" y="113" font-family="ui-monospace,'SF Mono',SFMono-Regular,Menlo,Consolas,monospace" font-size="12" fill="#C4B9A7">Edit</text>
      <rect x="150" y="105" width="640" height="8" rx="4" fill="#1E1810"/>
      <rect x="150" y="105" width="138.8" height="8" rx="4" fill="url(#barEmber)"/>
      <text x="850" y="113" text-anchor="end" font-family="ui-monospace,'SF Mono',SFMono-Regular,Menlo,Consolas,monospace" font-size="11" fill="#E6BF5A">6.1K</text><text x="30" y="135" font-family="ui-monospace,'SF Mono',SFMono-Regular,Menlo,Consolas,monospace" font-size="12" fill="#C4B9A7">StructuredOutput</text>
      <rect x="150" y="127" width="640" height="8" rx="4" fill="#1E1810"/>
      <rect x="150" y="127" width="57.3" height="8" rx="4" fill="url(#barEmber)"/>
      <text x="850" y="135" text-anchor="end" font-family="ui-monospace,'SF Mono',SFMono-Regular,Menlo,Consolas,monospace" font-size="11" fill="#E6BF5A">2.5K</text><text x="30" y="157" font-family="ui-monospace,'SF Mono',SFMono-Regular,Menlo,Consolas,monospace" font-size="12" fill="#C4B9A7">Write</text>
      <rect x="150" y="149" width="640" height="8" rx="4" fill="#1E1810"/>
      <rect x="150" y="149" width="57.1" height="8" rx="4" fill="url(#barEmber)"/>
      <text x="850" y="157" text-anchor="end" font-family="ui-monospace,'SF Mono',SFMono-Regular,Menlo,Consolas,monospace" font-size="11" fill="#E6BF5A">2.5K</text><text x="30" y="179" font-family="ui-monospace,'SF Mono',SFMono-Regular,Menlo,Consolas,monospace" font-size="12" fill="#C4B9A7">Grep</text>
      <rect x="150" y="171" width="640" height="8" rx="4" fill="#1E1810"/>
      <rect x="150" y="171" width="18.1" height="8" rx="4" fill="url(#barEmber)"/>
      <text x="850" y="179" text-anchor="end" font-family="ui-monospace,'SF Mono',SFMono-Regular,Menlo,Consolas,monospace" font-size="11" fill="#E6BF5A">797</text></svg>
